<svg width="46" height="46" viewBox="0 0 46 46" fill="none" xmlns="http://www.w3.org/2000/svg">
<rect width="45.7399" height="45.7399" rx="9.86547" fill="#F3CC4F"/>
<path fill-rule="evenodd" clip-rule="evenodd" d="M29.0583 28.8191V17.3393C29.0583 16.0707 28.5543 14.8541 27.6573 13.957C26.7602 13.06 25.5436 12.556 24.275 12.556H10.8819C10.3745 12.556 9.88782 12.7576 9.52901 13.1164C9.17019 13.4753 8.96861 13.9619 8.96861 14.4693V21.6748C8.96861 21.3165 9.09627 21.0098 9.3516 20.7544C9.60692 20.4991 9.91348 20.3717 10.2713 20.3721H20.6927C21.0509 20.3721 21.3577 20.4998 21.613 20.7551C21.8683 21.0104 21.9958 21.317 21.9953 21.6748V29.4908C21.9953 29.849 21.8677 30.1558 21.6123 30.4111C21.4593 30.5641 21.2879 30.6712 21.0981 30.7324H27.145C27.6524 30.7324 28.1391 30.5308 28.4979 30.172C28.8567 29.8132 29.0583 29.3265 29.0583 28.8191ZM36.7115 14.9452C36.8802 14.9452 37.0456 14.9916 37.1898 15.0792C37.3364 15.161 37.4582 15.2808 37.5424 15.426C37.6266 15.5712 37.67 15.7365 37.6681 15.9043V27.3841C37.67 27.552 37.6266 27.7172 37.5424 27.8624C37.4582 28.0077 37.3364 28.1275 37.1898 28.2092C37.0447 28.2944 36.8797 28.3397 36.7115 28.3408C36.5435 28.3381 36.3789 28.2929 36.2331 28.2092L31.4499 25.4828C31.3032 25.3981 31.1816 25.276 31.0976 25.1289C31.0135 24.9818 30.97 24.8151 30.9716 24.6457V18.6427C30.97 18.4734 31.0135 18.3066 31.0976 18.1595C31.1816 18.0125 31.3032 17.8903 31.4499 17.8057L36.2331 15.0792C36.3773 14.9916 36.5428 14.9452 36.7115 14.9452Z" fill="black"/>
<path d="M8.96861 31.4718V22.5762C8.96861 22.2621 9.08577 21.9931 9.3201 21.7692C9.55442 21.5453 9.83576 21.4335 10.1641 21.4339H19.7283C20.0571 21.4339 20.3386 21.5458 20.5729 21.7697C20.8073 21.9936 20.9242 22.2624 20.9238 22.5762V29.43C20.9238 29.7441 20.8067 30.0131 20.5723 30.237C20.338 30.4609 20.0567 30.5726 19.7283 30.5723H11.3597L9.98481 31.8859C9.79552 32.0668 9.57873 32.1073 9.33444 32.0076C9.09016 31.9078 8.96822 31.7292 8.96861 31.4718Z" fill="black"/>
</svg>
